<svg width="140" height="50" viewBox="0 0 140 50" fill="none" xmlns="http://www.w3.org/2000/svg">
<path d="M75.7325 16.0977L71.9332 35.4276H66.7164L61.2727 26.4302L59.5148 35.4276H53.334L57.1332 16.0977H62.3501L67.7938 25.0951L69.5516 16.0977H75.7325Z" fill="white"/>
<path d="M95.1264 22.5406C95.1264 27.4166 91.3838 30.7253 85.5432 30.7253H82.2543L81.3471 35.4853H74.9961L78.7953 16.1553H87.1877C92.2911 16.0973 95.1264 18.4772 95.1264 22.5406ZM88.662 23.1211C88.662 21.7279 87.7547 21.1475 86.2804 21.1475H84.1256L83.2183 25.6752H85.8267C87.6413 25.6752 88.662 24.7464 88.662 23.1211Z" fill="white"/>
<path d="M97.8471 20.3359H103.915L100.966 35.4284H94.8984L97.8471 20.3359Z" fill="white"/>
<path d="M104.312 28.7526C104.312 23.7605 108.168 20.1035 113.612 20.1035C117.128 20.1035 119.85 21.7869 120.927 24.5152L115.767 26.9532C115.257 25.56 114.349 25.0376 113.329 25.0376C111.684 25.0376 110.493 26.3727 110.493 28.4044C110.493 29.8556 111.287 30.8424 112.818 30.8424C114.009 30.8424 114.86 30.3199 115.597 28.9268L120.077 31.597C118.602 34.2672 115.88 35.7764 112.421 35.7764C107.488 35.7184 104.312 32.9901 104.312 28.7526Z" fill="white"/>
<path d="M119.906 34.3833L122.004 30.1458C123.479 31.0746 125.463 31.5389 127.108 31.5389C128.469 31.5389 128.922 31.2487 128.922 30.8424C128.922 29.5653 121.494 30.9004 121.494 25.8503C121.494 21.961 125.18 20.1035 129.83 20.1035C131.984 20.1035 134.083 20.5099 135.614 21.2645L133.515 25.502C131.984 24.5732 130.34 24.341 129.092 24.341C127.675 24.341 127.221 24.7473 127.221 25.0956C127.221 26.4888 134.65 25.0376 134.65 30.0877C134.65 33.8609 130.907 35.7764 126.371 35.7764C123.762 35.7184 121.21 35.1379 119.906 34.3833Z" fill="white"/>
<path d="M97.6777 16.7363C97.6777 14.8208 99.2088 13.3115 101.59 13.3115C103.745 13.3115 105.049 14.4725 105.049 16.1559C105.049 18.2456 103.518 19.6387 101.137 19.6387C99.0387 19.6968 97.6777 18.4197 97.6777 16.7363Z" fill="url(#paint0_linear_3555_4707)"/>
<path d="M17.8924 6H27.2487C28.0993 6 28.7797 6.69657 28.7797 7.56729V17.1452C28.7797 18.0159 28.0993 18.7125 27.2487 18.7125H17.8924C17.0418 18.7125 16.3613 18.0159 16.3613 17.1452V7.56729C16.3613 6.69657 17.0418 6 17.8924 6Z" fill="#FFD43B"/>
<path d="M5.53104 18.6543H14.8874C15.7379 18.6543 16.4184 19.3509 16.4184 20.2216V29.7995C16.4184 30.6702 15.7379 31.3668 14.8874 31.3668H5.53104C4.68046 31.3668 4 30.6702 4 29.7995V20.2216C4 19.3509 4.68046 18.6543 5.53104 18.6543Z" fill="#FF3E3E"/>
<path d="M30.2537 18.6543H39.61C40.4606 18.6543 41.1411 19.3509 41.1411 20.2216V29.7995C41.1411 30.6702 40.4606 31.3668 39.61 31.3668H30.2537C29.4031 31.3668 28.7227 30.6702 28.7227 29.7995V20.2216C28.7794 19.3509 29.4598 18.6543 30.2537 18.6543Z" fill="#FF8845"/>
<path d="M17.8924 31.3672H27.2487C28.0993 31.3672 28.7797 32.0638 28.7797 32.9345V42.5124C28.7797 43.3831 28.0993 44.0797 27.2487 44.0797H17.8924C17.0418 44.0797 16.3613 43.3831 16.3613 42.5124V32.8764C16.3613 32.0638 17.0418 31.3672 17.8924 31.3672Z" fill="#FF7448"/>
<path d="M10.1816 26.5487C10.1816 25.678 10.8621 24.9814 11.7127 24.9814H22.6V36.1266C22.6 36.9973 21.9196 37.6939 21.069 37.6939H11.7127C10.8621 37.6939 10.1816 36.9973 10.1816 36.1266V26.5487Z" fill="#FF0E0E" fill-opacity="0.9"/>
<path d="M22.5996 13.8944C22.5996 13.0237 23.2801 12.3271 24.1306 12.3271H33.487C34.3375 12.3271 35.018 13.0237 35.018 13.8944V23.4723C35.018 24.3431 34.3375 25.0396 33.487 25.0396H22.5996V13.8944Z" fill="#FF6A16" fill-opacity="0.9"/>
<path d="M10.1816 13.8944C10.1816 13.0237 10.8621 12.3271 11.7127 12.3271H21.069C21.9196 12.3271 22.6 13.0237 22.6 13.8944V25.0396H11.7127C10.8621 25.0396 10.1816 24.3431 10.1816 23.4723V13.8944Z" fill="#FFC90A" fill-opacity="0.9"/>
<path d="M22.5997 25.04H33.487C34.3376 25.04 35.0181 25.7366 35.0181 26.6073V36.1852C35.0181 37.0559 34.3376 37.7525 33.487 37.7525H24.074C23.2234 37.7525 22.543 37.0559 22.543 36.1852V25.04H22.5997Z" fill="#FF511B" fill-opacity="0.9"/>
<defs>
<linearGradient id="paint0_linear_3555_4707" x1="97.6998" y1="16.5134" x2="105.042" y2="16.5134" gradientUnits="userSpaceOnUse">
<stop stop-color="#FAC739"/>
<stop offset="1" stop-color="#FB0D0D"/>
</linearGradient>
</defs>
</svg>
